# xmcd CD database file
#
# Track frame offsets:
#	150
#	16157
#	35782
#	61522
#	80392
#	100852
#	123720
#	140090
#	160032
#	179975
#	205027
#	227412
#	258552
#	299265
#
# Disc length: 4440 seconds
#
# Revision: 0
# Processed by: cddbd v1.4PL0 Copyright (c) Steve Scherf et al.
# Submitted via: CDex 1.51
#
DISCID=c311560e
DTITLE=David Bridie - Hotel Radio
DYEAR=2003
DGENRE=New Age
TTITLE0=Hotel Radio
TTITLE1=On a Day Like This
TTITLE2=Safety haven
TTITLE3=Come Around
TTITLE4=Nation (of the heartless kind)
TTITLE5=The Tender Trap
TTITLE6=100 Flowers in Bloom
TTITLE7=Epiphany
TTITLE8=Looking After Ourselves Again
TTITLE9=Canopy
TTITLE10=Blue Black Sky
TTITLE11=Wires
TTITLE12=Stumble Away
TTITLE13=Data
EXTD=YEAR: 2003
EXTT0=
EXTT1=
EXTT2=
EXTT3=
EXTT4=
EXTT5=
EXTT6=
EXTT7=
EXTT8=
EXTT9=
EXTT10=
EXTT11=
EXTT12=
EXTT13=
PLAYORDER=
